<svg width="49" height="48" viewBox="0 0 49 48" fill="none" xmlns="http://www.w3.org/2000/svg">
<path d="M24.5248 2.97607C13.0194 2.97607 3.65967 12.3361 3.65967 23.8412C3.65967 35.3466 13.0194 44.707 24.5248 44.707C36.0295 44.707 45.3899 35.3466 45.3899 23.8412C45.3899 12.3361 36.0295 2.97607 24.5248 2.97607ZM30.4218 16.1478C30.4218 16.2466 30.3826 16.3414 30.3127 16.4112C30.2429 16.4811 30.1481 16.5203 30.0493 16.5203L27.6775 16.5218C26.1125 16.5218 25.8264 17.1313 25.8264 18.3315V20.8215H29.8944C30.0013 20.8215 30.1033 20.8677 30.1737 20.9482C30.2442 21.0286 30.2769 21.1355 30.2639 21.2417L29.6846 25.7243C29.673 25.8141 29.6291 25.8966 29.5611 25.9564C29.4931 26.0162 29.4056 26.0492 29.3151 26.0491H25.8264V37.1798C25.8264 37.2786 25.7871 37.3734 25.7173 37.4432C25.6474 37.5131 25.5527 37.5523 25.4539 37.5523H20.8256C20.7268 37.5523 20.6321 37.5131 20.5622 37.4432C20.4923 37.3734 20.4531 37.2786 20.4531 37.1798V26.0491H16.9532C16.8544 26.0491 16.7597 26.0099 16.6898 25.94C16.6199 25.8702 16.5807 25.7754 16.5807 25.6766V21.194C16.5807 21.0952 16.6199 21.0005 16.6898 20.9306C16.7597 20.8607 16.8544 20.8215 16.9532 20.8215H20.4531V17.8879C20.4531 14.0024 22.8045 11.5892 26.5904 11.5892C28.218 11.5892 29.6563 11.7103 30.0981 11.7688C30.1877 11.7806 30.2699 11.8246 30.3294 11.8925C30.389 11.9604 30.4218 12.0476 30.4218 12.1379V16.1478Z" fill="black"/>
</svg>
