<svg width="49" height="48" viewBox="0 0 49 48" fill="none" xmlns="http://www.w3.org/2000/svg">
<g clip-path="url(#clip0_1_154)">
<path d="M33.8882 16.5177C33.6813 15.9819 33.3645 15.4953 32.9582 15.0894C32.5518 14.6835 32.0649 14.3672 31.5289 14.1608C30.7908 13.8875 30.0112 13.743 29.2242 13.7337C27.9154 13.6741 27.523 13.6592 24.2076 13.6592C20.8921 13.6592 20.4997 13.6741 19.1909 13.7337C18.403 13.7427 17.6226 13.8872 16.8837 14.1608C16.3479 14.3677 15.8614 14.6846 15.4554 15.0909C15.0495 15.4973 14.7332 15.9841 14.5269 16.5202C14.2535 17.2583 14.109 18.0378 14.0997 18.8249C14.0401 20.1337 14.0252 20.5261 14.0252 23.8415C14.0252 27.157 14.0401 27.5494 14.0997 28.8582C14.1087 29.6461 14.2532 30.4265 14.5269 31.1654C14.7338 31.7012 15.0506 32.1877 15.4569 32.5936C15.8633 32.9996 16.3502 33.3159 16.8862 33.5222C17.6243 33.7956 18.4039 33.9401 19.1909 33.9494C20.4997 34.009 20.8921 34.0239 24.2076 34.0239C27.523 34.0239 27.9154 34.009 29.2242 33.9494C30.0121 33.9403 30.7925 33.7958 31.5314 33.5222C32.0672 33.3153 32.5537 32.9985 32.9597 32.5921C33.3656 32.1858 33.6819 31.6989 33.8882 31.1629C34.1616 30.4248 34.3061 29.6452 34.3154 28.8582C34.375 27.5494 34.3899 27.157 34.3899 23.8415C34.3899 20.5261 34.375 20.1337 34.3154 18.8249C34.3064 18.037 34.1619 17.2566 33.8882 16.5177ZM24.2076 30.2191C22.9462 30.2191 21.7131 29.8451 20.6643 29.1443C19.6155 28.4435 18.7981 27.4475 18.3154 26.2821C17.8327 25.1168 17.7064 23.8344 17.9525 22.5973C18.1986 21.3602 18.806 20.2238 19.6979 19.3319C20.5898 18.4399 21.7262 17.8325 22.9633 17.5864C24.2005 17.3404 25.4828 17.4667 26.6482 17.9494C27.8135 18.4321 28.8096 19.2495 29.5104 20.2983C30.2111 21.3471 30.5852 22.5801 30.5852 23.8415C30.5852 25.533 29.9132 27.1551 28.7172 28.3512C27.5212 29.5472 25.899 30.2191 24.2076 30.2191ZM30.836 18.7032C30.5413 18.7032 30.2532 18.6158 30.0082 18.452C29.7631 18.2883 29.5721 18.0556 29.4593 17.7833C29.3466 17.511 29.317 17.2114 29.3745 16.9224C29.432 16.6333 29.574 16.3678 29.7823 16.1594C29.9907 15.951 30.2563 15.8091 30.5453 15.7516C30.8344 15.6941 31.134 15.7236 31.4062 15.8364C31.6785 15.9492 31.9112 16.1402 32.075 16.3852C32.2387 16.6303 32.3261 16.9184 32.3261 17.2131C32.3261 17.6083 32.1691 17.9873 31.8897 18.2667C31.6102 18.5462 31.2312 18.7032 30.836 18.7032Z" fill="black"/>
<path d="M24.2076 27.9816C26.494 27.9816 28.3475 26.1281 28.3475 23.8417C28.3475 21.5552 26.494 19.7017 24.2076 19.7017C21.9211 19.7017 20.0676 21.5552 20.0676 23.8417C20.0676 26.1281 21.9211 27.9816 24.2076 27.9816Z" fill="black"/>
<path d="M24.2076 0C19.4921 0 14.8826 1.39828 10.9619 4.01803C7.04116 6.63778 3.98532 10.3613 2.18081 14.7178C0.376297 19.0743 -0.0958458 23.868 0.824087 28.4928C1.74402 33.1177 4.01471 37.3658 7.34902 40.7001C10.6833 44.0344 14.9315 46.3051 19.5563 47.2251C24.1811 48.145 28.9749 47.6728 33.3313 45.8683C37.6878 44.0638 41.4114 41.008 44.0311 37.0873C46.6509 33.1665 48.0491 28.557 48.0491 23.8416C48.0491 17.5184 45.5373 11.4542 41.0661 6.98304C36.5949 2.51187 30.5307 0 24.2076 0ZM36.5505 28.9626C36.5292 29.9922 36.3336 31.0108 35.9719 31.975C35.653 32.7998 35.1652 33.5487 34.54 34.174C33.9147 34.7992 33.1657 35.287 32.341 35.6059C31.3768 35.9676 30.3582 36.1633 29.3285 36.1846C28.0023 36.2442 27.5802 36.2591 24.2076 36.2591C20.835 36.2591 20.4128 36.2442 19.0866 36.1846C18.0569 36.1633 17.0384 35.9676 16.0741 35.6059C15.2494 35.287 14.5004 34.7992 13.8751 34.174C13.2499 33.5487 12.7622 32.7998 12.4432 31.975C12.0815 31.0108 11.8859 29.9922 11.8646 28.9626C11.805 27.6364 11.7901 27.2142 11.7901 23.8416C11.7901 20.469 11.805 20.0468 11.8646 18.7206C11.8859 17.691 12.0815 16.6724 12.4432 15.7081C12.7622 14.8834 13.2499 14.1344 13.8751 13.5092C14.5004 12.8839 15.2494 12.3962 16.0741 12.0773C17.0384 11.7156 18.0569 11.5199 19.0866 11.4986C20.4128 11.439 20.835 11.4241 24.2076 11.4241C27.5802 11.4241 28.0023 11.439 29.3285 11.4986C30.3582 11.5199 31.3768 11.7156 32.341 12.0773C33.1657 12.3962 33.9147 12.8839 34.54 13.5092C35.1652 14.1344 35.653 14.8834 35.9719 15.7081C36.3336 16.6724 36.5292 17.691 36.5505 18.7206C36.6101 20.0468 36.6251 20.469 36.6251 23.8416C36.6251 27.2142 36.6101 27.6364 36.5505 28.9626Z" fill="black"/>
</g>
<defs>
<clipPath id="clip0_1_154">
<rect width="47.6832" height="47.6832" fill="white" transform="translate(0.365967)"/>
</clipPath>
</defs>
</svg>
