<svg width="48" height="48" viewBox="0 0 48 48" fill="none" xmlns="http://www.w3.org/2000/svg">
<g clip-path="url(#clip0_1_150)">
<path d="M23.8416 0C10.6751 0 0 10.6751 0 23.8416C0 37.0081 10.6751 47.6832 23.8416 47.6832C37.0081 47.6832 47.6832 37.0081 47.6832 23.8416C47.6832 10.6751 37.0081 0 23.8416 0ZM35.5518 16.3335L31.6378 34.771C31.3497 36.0783 30.5709 36.3962 29.4841 35.7803L23.5237 31.3894L20.6508 34.159C20.3726 34.5167 19.9415 34.7451 19.4587 34.7451C19.4547 34.7451 19.4527 34.7451 19.4488 34.7451L19.872 28.6775L30.9186 18.6997C31.3954 18.2766 30.8113 18.0362 30.1775 18.4593L16.5302 27.0542L10.6492 25.2184C9.37769 24.8151 9.34193 23.9469 10.9175 23.323L33.8968 14.4659C34.9657 14.0765 35.8955 14.7202 35.5498 16.3355L35.5518 16.3335Z" fill="black"/>
</g>
<defs>
<clipPath id="clip0_1_150">
<rect width="47.6832" height="47.6832" fill="white"/>
</clipPath>
</defs>
</svg>
